Coordinates
version=1
nRows=16
nColumns=40
inDegrees=yes

Units are S.I. units (second, meters, Newtons, ...)
If the header above contains a line with 'inDegrees', this indicates whether rotational values are in degrees (yes) or radians (no).

endheader
time	pelvis_tilt	pelvis_list	pelvis_rotation	pelvis_tx	pelvis_ty	pelvis_tz	hip_flexion_r	hip_adduction_r	hip_rotation_r	knee_angle_r	knee_angle_r_beta	ankle_angle_r	subtalar_angle_r	mtp_angle_r	hip_flexion_l	hip_adduction_l	hip_rotation_l	knee_angle_l	knee_angle_l_beta	ankle_angle_l	subtalar_angle_l	mtp_angle_l	lumbar_extension	lumbar_bending	lumbar_rotation	arm_flex_r	arm_add_r	arm_rot_r	elbow_flex_r	pro_sup_r	wrist_flex_r	wrist_dev_r	arm_flex_l	arm_add_l	arm_rot_l	elbow_flex_l	pro_sup_l	wrist_flex_l	wrist_dev_l
      9.87500000	     89.15547745	     70.69070750	     89.29500846	      0.35411154	      0.61264398	      0.85130077	     45.16539575	    -10.95247928	    -10.88328196	     22.95505004	      0.40064120	     -4.40581652	      0.00000000	      0.00000000	     40.19981686	    -14.29172481	    -16.86639387	     15.50068499	      0.27053799	     -7.69718627	      0.00000000	      0.00000000	    -24.09298474	     -7.68852309	      4.36854148	      0.00000000	    -14.99999999	      0.00000000	     75.00017585	     45.00000026	      0.00000000	      0.00000000	      0.00000000	    -14.99999999	      0.00000000	     75.00017585	     45.00000026	      0.00000000	      0.00000000
      9.88000000	     89.16203578	     70.48686761	     89.30874939	      0.35501222	      0.61274529	      0.85059525	     45.52440600	    -10.95429199	    -10.84670659	     23.07512168	      0.40273685	     -4.49736343	      0.00000000	      0.00000000	     40.56092296	    -14.32428776	    -16.85007747	     15.63103386	      0.27281301	     -7.70886214	      0.00000000	      0.00000000	    -24.14595649	     -7.71544342	      4.35329151	      0.00000000	    -14.99999999	      0.00000000	     75.00017585	     45.00000026	      0.00000000	      0.00000000	      0.00000000	    -14.99999999	      0.00000000	     75.00017585	     45.00000026	      0.00000000	      0.00000000
      9.88500000	     89.17693204	     70.12615518	     89.32395241	      0.35612269	      0.61287386	      0.84957152	     46.08334398	    -10.94977879	    -10.72481161	     23.24175127	      0.40564508	     -4.48936377	      0.00000000	      0.00000000	     41.11970622	    -14.34560195	    -16.68005355	     15.77535917	      0.27533196	     -7.72697578	      0.00000000	      0.00000000	    -24.01873286	     -7.71271421	      4.21385293	      0.00000000	    -14.99999999	      0.00000000	     75.00017585	     45.00000026	      0.00000000	      0.00000000	      0.00000000	    -14.99999999	      0.00000000	     75.00017585	     45.00000026	      0.00000000	      0.00000000
      9.89000000	     89.18101669	     69.98632755	     89.33505867	      0.35692382	      0.61298946	      0.84902229	     46.33040558	    -10.95326511	    -10.73002876	     23.29660030	      0.40660238	     -4.63089721	      0.00000000	      0.00000000	     41.38632661	    -14.37618582	    -16.71261472	     15.86461312	      0.27688973	     -7.78481724	      0.00000000	      0.00000000	    -24.15629388	     -7.74934097	      4.33053069	      0.00000000	    -14.99999999	      0.00000000	     75.00017585	     45.00000026	      0.00000000	      0.00000000	      0.00000000	    -14.99999999	      0.00000000	     75.00017585	     45.00000026	      0.00000000	      0.00000000
      9.89500000	     89.16605946	     69.97906794	     89.32502162	      0.35766601	      0.61316130	      0.84867677	     46.44655910	    -10.94320946	    -10.75658015	     23.36596112	      0.40781295	     -4.72465521	      0.00000000	      0.00000000	     41.52998148	    -14.45155248	    -16.87225170	     16.04311151	      0.28000512	     -7.77959886	      0.00000000	      0.00000000	    -24.45856174	     -7.80055774	      4.46498261	      0.00000000	    -14.99999999	      0.00000000	     75.00017585	     45.00000026	      0.00000000	      0.00000000	      0.00000000	    -14.99999999	      0.00000000	     75.00017585	     45.00000026	      0.00000000	      0.00000000
      9.90000000	     89.17188171	     69.77205018	     89.32858776	      0.35861202	      0.61334494	      0.84795512	     46.79861484	    -10.94663806	    -10.75921646	     23.47344659	      0.40968893	     -4.79167553	      0.00000000	      0.00000000	     41.89646947	    -14.48975168	    -16.82777681	     16.17372233	      0.28228471	     -7.76984287	      0.00000000	      0.00000000	    -24.50599142	     -7.82841928	      4.42760045	      0.00000000	    -14.99999999	      0.00000000	     75.00017585	     45.00000026	      0.00000000	      0.00000000	      0.00000000	    -14.99999999	      0.00000000	     75.00017585	     45.00000026	      0.00000000	      0.00000000
      9.90500000	     89.14027167	     69.14094037	     89.30167122	      0.35993011	      0.61350345	      0.84651407	     47.65160368	    -10.86519263	    -10.43066164	     23.55300993	      0.41107757	     -5.12419947	      0.00000000	      0.00000000	     42.74076279	    -14.53618641	    -16.63591886	     16.31267288	      0.28470985	     -7.90196432	      0.00000000	      0.00000000	    -24.07148481	     -7.88737515	      4.81988102	      0.00000000	    -14.99999999	      0.00000000	     75.00017585	     45.00000026	      0.00000000	      0.00000000	      0.00000000	    -14.99999999	      0.00000000	     75.00017585	     45.00000026	      0.00000000	      0.00000000
      9.91000000	     89.19082194	     69.18476677	     89.33815668	      0.36069778	      0.61358750	      0.84628388	     47.66705670	    -10.92909600	    -10.62433085	     23.62118309	      0.41226742	     -4.93720993	      0.00000000	      0.00000000	     42.78617252	    -14.50617239	    -16.51250668	     16.31940610	      0.28482737	     -7.85893978	      0.00000000	      0.00000000	    -24.39960110	     -7.87118496	      4.40945056	      0.00000000	    -14.99999999	      0.00000000	     75.00017585	     45.00000026	      0.00000000	      0.00000000	      0.00000000	    -14.99999999	      0.00000000	     75.00017585	     45.00000026	      0.00000000	      0.00000000
      9.91500000	     89.15072457	     69.37286930	     89.31802543	      0.36123609	      0.61378153	      0.84632385	     47.51768686	    -10.91878820	    -10.73649944	     23.62154820	      0.41227379	     -5.01346682	      0.00000000	      0.00000000	     42.70596200	    -14.61519983	    -16.87370461	     16.53062407	      0.28851382	     -7.86325364	      0.00000000	      0.00000000	    -24.93242717	     -7.93640158	      4.45556719	      0.00000000	    -14.99999999	      0.00000000	     75.00017585	     45.00000026	      0.00000000	      0.00000000	      0.00000000	    -14.99999999	      0.00000000	     75.00017585	     45.00000026	      0.00000000	      0.00000000
      9.92000000	     89.15576362	     69.15850590	     89.31533732	      0.36215350	      0.61392462	      0.84562023	     47.84700478	    -10.92313694	    -10.75373434	     23.68318818	      0.41334961	     -5.05247784	      0.00000000	      0.00000000	     43.06460067	    -14.64421774	    -16.84181451	     16.63624719	      0.29035729	     -7.86633820	      0.00000000	      0.00000000	    -24.96093082	     -7.95571806	      4.39921815	      0.00000000	    -14.99999999	      0.00000000	     75.00017585	     45.00000026	      0.00000000	      0.00000000	      0.00000000	    -14.99999999	      0.00000000	     75.00017585	     45.00000026	      0.00000000	      0.00000000
      9.92500000	     89.13455943	     68.97098630	     89.30359579	      0.36309866	      0.61406298	      0.84503260	     48.13634565	    -10.89783686	    -10.68199041	     23.71311209	      0.41387188	     -5.11052166	      0.00000000	      0.00000000	     43.36547935	    -14.67527525	    -16.81793847	     16.70926548	      0.29163170	     -7.90996973	      0.00000000	      0.00000000	    -25.06497731	     -8.00677831	      4.56598247	      0.00000000	    -14.99999999	      0.00000000	     75.00017585	     45.00000026	      0.00000000	      0.00000000	      0.00000000	    -14.99999999	      0.00000000	     75.00017585	     45.00000026	      0.00000000	      0.00000000
      9.93000000	     89.13397321	     68.76604508	     89.30795058	      0.36403690	      0.61416685	      0.84439677	     48.45074585	    -10.89850455	    -10.70101589	     23.75131519	      0.41453865	     -5.18567127	      0.00000000	      0.00000000	     43.68329038	    -14.68606843	    -16.75650810	     16.74490373	      0.29225370	     -7.97524298	      0.00000000	      0.00000000	    -25.09994820	     -8.02863239	      4.35028943	      0.00000000	    -14.99999999	      0.00000000	     75.00017585	     45.00000026	      0.00000000	      0.00000000	      0.00000000	    -14.99999999	      0.00000000	     75.00017585	     45.00000026	      0.00000000	      0.00000000
      9.93500000	     89.13388741	     68.69323683	     89.30331489	      0.36487105	      0.61422814	      0.84401481	     48.60350364	    -10.90826927	    -10.73430894	     23.78419643	      0.41511254	     -5.24719545	      0.00000000	      0.00000000	     43.85430924	    -14.70501090	    -16.78659211	     16.80092424	      0.29323145	     -8.00758977	      0.00000000	      0.00000000	    -25.34337145	     -8.03644369	      4.35806546	      0.00000000	    -14.99999999	      0.00000000	     75.00017585	     45.00000026	      0.00000000	      0.00000000	      0.00000000	    -14.99999999	      0.00000000	     75.00017585	     45.00000026	      0.00000000	      0.00000000
      9.94000000	     89.11439015	     68.66057136	     89.28692527	      0.36570468	      0.61442168	      0.84373646	     48.69712304	    -10.87032215	    -10.73354019	     23.75276838	      0.41456401	     -5.31783051	      0.00000000	      0.00000000	     43.95509047	    -14.74912668	    -16.86259834	     16.82549394	      0.29366027	     -8.06178108	      0.00000000	      0.00000000	    -25.63096688	     -8.10281068	      4.45612613	      0.00000000	    -14.99999999	      0.00000000	     75.00017585	     45.00000026	      0.00000000	      0.00000000	      0.00000000	    -14.99999999	      0.00000000	     75.00017585	     45.00000026	      0.00000000	      0.00000000
      9.94500000	     89.11643506	     68.37391516	     89.28706435	      0.36674092	      0.61451775	      0.84294767	     49.12372561	    -10.86837742	    -10.69839530	     23.83290118	      0.41596260	     -5.35990746	      0.00000000	      0.00000000	     44.36950119	    -14.76024023	    -16.76759973	     16.87676311	      0.29455508	     -8.13487393	      0.00000000	      0.00000000	    -25.60557253	     -8.12373993	      4.33913813	      0.00000000	    -14.99999999	      0.00000000	     75.00017585	     45.00000026	      0.00000000	      0.00000000	      0.00000000	    -14.99999999	      0.00000000	     75.00017585	     45.00000026	      0.00000000	      0.00000000
      9.95000000	     89.08194288	     68.32314688	     89.26471738	      0.36758182	      0.61471358	      0.84267930	     49.24074466	    -10.83343055	    -10.72045305	     23.80340078	      0.41544772	     -5.49002106	      0.00000000	      0.00000000	     44.45973808	    -14.80869882	    -16.85990930	     16.85251468	      0.29413187	     -8.19609120	      0.00000000	      0.00000000	    -25.88600412	     -8.18237274	      4.49007066	      0.00000000	    -14.99999999	      0.00000000	     75.00017585	     45.00000026	      0.00000000	      0.00000000	      0.00000000	    -14.99999999	      0.00000000	     75.00017585	     45.00000026	      0.00000000	      0.00000000
